# xmcd CD database file
#
# Track frame offsets:
#	150
#	11962
#	25312
#	45139
#
# Disc length: 824 seconds
#
# Revision: 1
# Processed by: cddbd v1.5.2PL0 Copyright (c) Steve Scherf et al.
# Submitted via: CDex 1.51
#
DISCID=25033604
DTITLE=Lonnie Dale - Big Country
DYEAR=1995
DGENRE=Country
TTITLE0=Forbidden fruits
TTITLE1=I let my fingers do the walkin'
TTITLE2=Hold on
TTITLE3=Find my baby
EXTD=YEAR: 1995
EXTT0=
EXTT1=
EXTT2=
EXTT3=
PLAYORDER=
